<?xml version="1.0" encoding="UTF-8"?>
<svg version="1.1" xmlns="http://www.w3.org/2000/svg" width="528" height="121">
<path d="M0 0 C0.89788239 -0.0049649 1.79576477 -0.00992981 2.72085571 -0.01504517 C5.69501509 -0.02966519 8.66912112 -0.03646867 11.64331055 -0.04199219 C13.70973207 -0.04774393 15.77615358 -0.05350166 17.84257507 -0.05926514 C22.17776742 -0.06977478 26.51294123 -0.07561764 30.84814453 -0.07910156 C36.39990203 -0.08458508 41.95141412 -0.10861033 47.50309467 -0.13707352 C51.77278863 -0.15570861 56.04242358 -0.16090597 60.31215477 -0.16243744 C62.35865813 -0.1654627 64.40516048 -0.17348696 66.45162392 -0.18662262 C69.31689682 -0.20370055 72.18157168 -0.20179848 75.046875 -0.1953125 C76.31187584 -0.20913467 76.31187584 -0.20913467 77.60243225 -0.22323608 C83.55513131 -0.18108161 87.80337113 0.91456161 92.29956055 5.09863281 C92.87061523 5.77925781 93.44166992 6.45988281 94.0300293 7.16113281 C94.61397461 7.84175781 95.19791992 8.52238281 95.79956055 9.22363281 C98.84435685 13.38401564 98.37203504 17.83529461 98.37866211 22.76000977 C98.38610947 24.07757263 98.38610947 24.07757263 98.39370728 25.42175293 C98.40832596 28.33098125 98.41513057 31.24015503 98.4206543 34.14941406 C98.42640617 36.17099509 98.4321639 38.19257611 98.43792725 40.2141571 C98.44843652 44.45519261 98.45427961 48.69620916 98.45776367 52.93725586 C98.46324696 58.36794744 98.48727186 63.79838812 98.51573563 69.22900105 C98.53437249 73.40604887 98.53956818 77.58303641 98.54109955 81.7601223 C98.54412444 83.76196857 98.55214745 85.76381383 98.56528473 87.76561928 C98.58236631 90.56863027 98.58045973 93.37103013 98.57397461 96.17407227 C98.58318939 96.99870468 98.59240417 97.8233371 98.60189819 98.67295837 C98.55085471 105.72665152 96.26556012 111.11310199 91.2175293 116.16113281 C83.48141671 121.79302277 75.52885608 122.31906759 66.2175293 121.16113281 C57.26193459 119.00725561 50.26162518 114.47712034 42.99487305 109.05175781 C39.85383174 106.77369568 39.85383174 106.77369568 36.2175293 106.16113281 C33.65363535 107.63578393 33.65363535 107.63578393 31.0925293 109.78613281 C19.74161848 118.44309413 8.65829646 122.68713157 -5.7824707 121.16113281 C-13.21947855 119.02062855 -17.99118253 114.8483496 -21.7824707 108.16113281 C-23.07514617 104.28310641 -22.93816393 100.60453004 -22.94360352 96.56225586 C-22.94856842 95.68388062 -22.95353333 94.80550537 -22.95864868 93.9005127 C-22.97326736 90.99128438 -22.98007197 88.08211059 -22.9855957 85.17285156 C-22.99134758 83.15127053 -22.99710531 81.12968952 -23.00286865 79.10810852 C-23.01337793 74.86707302 -23.01922102 70.62605646 -23.02270508 66.38500977 C-23.02818837 60.95431818 -23.05221327 55.5238775 -23.08067703 50.09326458 C-23.09931389 45.91621675 -23.10450958 41.73922922 -23.10604095 37.56214333 C-23.10906585 35.56029705 -23.11708885 33.5584518 -23.13022614 31.55664635 C-23.14730771 28.75363535 -23.14540114 25.95123549 -23.13891602 23.14819336 C-23.1481308 22.32356094 -23.15734558 21.49892853 -23.1668396 20.64930725 C-23.12415969 14.75137644 -21.98682376 10.5299235 -17.8449707 6.07910156 C-17.1643457 5.50804687 -16.4837207 4.93699219 -15.7824707 4.34863281 C-15.1018457 3.7646875 -14.4212207 3.18074219 -13.7199707 2.57910156 C-9.51541944 -0.49801962 -4.97647193 0.00654927 0 0 Z M-6.75172424 16.20533752 C-9.28653293 19.89480626 -9.46933988 22.77615733 -9.38183594 27.10083008 C-9.38577866 27.88517426 -9.38972137 28.66951843 -9.39378357 29.47763062 C-9.4004783 32.06159023 -9.37136746 34.64376952 -9.34106445 37.22753906 C-9.33681263 39.0268469 -9.33448559 40.82616023 -9.33399963 42.62547302 C-9.32783906 46.39241475 -9.30516155 50.15876072 -9.26953125 53.92553711 C-9.22422667 58.75327419 -9.20950325 63.58047242 -9.20579433 68.40840244 C-9.20136521 72.12218028 -9.18606093 75.83584512 -9.1669178 79.5495739 C-9.1580411 81.32976287 -9.15130843 83.10996386 -9.14675713 84.89016914 C-9.13771104 87.37726212 -9.11531809 89.86386896 -9.08886719 92.35083008 C-9.08820251 93.08600357 -9.08753784 93.82117706 -9.08685303 94.57862854 C-9.0332247 98.23347643 -8.95234104 101.13565871 -6.7824707 104.16113281 C-2.62465 106.75977075 0.11334362 107.48886272 4.9675293 106.72363281 C13.14025137 104.70228781 20.73357428 100.59059731 26.2175293 94.16113281 C25.64905273 93.55527344 25.08057617 92.94941406 24.49487305 92.32519531 C13.52888068 80.42553748 6.50371233 71.40879433 6.8659668 54.86035156 C7.61491372 46.97976556 10.5792306 40.67128836 16.2175293 35.16113281 C25.32940787 28.3885357 33.98371322 27.21819074 45.2175293 28.16113281 C53.89204488 30.25889148 59.82289353 34.64547807 64.5300293 42.22363281 C69.28899713 50.33011607 69.51062032 59.85294555 67.6394043 68.98144531 C65.4813307 75.08290794 61.66489642 79.66857234 57.47924805 84.53222656 C54.5428646 87.94532857 51.87234951 91.52767298 49.2175293 95.16113281 C61.47846848 104.43428248 61.47846848 104.43428248 76.2175293 107.16113281 C79.39804871 106.06240792 81.40743492 105.31495152 83.35853577 102.53599548 C84.57749962 99.1659215 84.52072623 95.88974817 84.52392578 92.35083008 C84.53641106 91.17694229 84.53641106 91.17694229 84.54914856 89.9793396 C84.57322123 87.39535533 84.58201653 84.81162352 84.58862305 82.22753906 C84.59759028 80.42919337 84.60671214 78.63084843 84.61598206 76.83250427 C84.63246633 73.06401761 84.64017135 69.29561975 84.64306641 65.52709961 C84.64845481 60.70031163 84.68615575 55.87435871 84.73181057 51.04780674 C84.76156211 47.33400935 84.76878952 43.62041371 84.76979256 39.90650749 C84.77399736 38.12709662 84.78644216 36.34768528 84.8073101 34.5683918 C84.83419087 32.07858014 84.8294106 29.59071312 84.81689453 27.10083008 C84.83172882 26.36768082 84.84656311 25.63453156 84.86184692 24.87916565 C84.80918806 21.19744479 84.28567662 19.26032271 82.18678284 16.20533752 C78.45408845 13.63553628 75.49038683 13.45507088 71.11010742 13.51416016 C70.3078624 13.50539856 69.50561737 13.49663696 68.67906189 13.48760986 C66.03507932 13.46565657 63.39277798 13.48015315 60.7487793 13.49707031 C58.90701986 13.49370098 57.06526258 13.48884739 55.22351074 13.48257446 C51.36664628 13.47520868 47.51036145 13.48589899 43.65356445 13.50927734 C38.71347161 13.53776516 33.77473693 13.52135958 28.83469391 13.49141502 C25.03246861 13.47333397 21.23056452 13.47910374 17.42832947 13.49205399 C15.60708963 13.49538578 13.78582048 13.49130888 11.96461487 13.47965622 C9.41727639 13.46693381 6.87212687 13.48634157 4.32495117 13.51416016 C3.57467148 13.504039 2.82439178 13.49391785 2.05137634 13.48348999 C-1.67088495 13.55867471 -3.66463465 14.08000771 -6.75172424 16.20533752 Z M23.2175293 49.16113281 C20.62950506 53.73330897 19.7128052 57.1086485 20.65893555 62.20019531 C22.62634227 69.10675599 27.4015423 73.79984439 32.1940918 78.92675781 C34.2175293 81.16113281 34.2175293 81.16113281 36.2175293 84.16113281 C44.14090144 80.57058509 50.13477894 72.64999793 54.2175293 65.16113281 C55.72001245 60.46204009 55.50574036 57.12183635 54.0925293 52.41113281 C50.59805553 46.35404495 46.8448624 43.40969226 40.2175293 41.16113281 C33.26549493 40.11832766 27.47150135 43.96183363 23.2175293 49.16113281 Z " fill="#004D7E" transform="translate(22.782470703125,-0.1611328125)"/>
<path d="M0 0 C3.0625 1.5 3.0625 1.5 5 3 C5.639375 2.505 6.27875 2.01 6.9375 1.5 C11.06762454 -0.52291814 14.48066356 -0.83544071 19 0 C22.71115073 1.76908668 24.6682548 4.13633791 26.15234375 8 C27.43367785 12.92159069 27.21473202 17.88834812 27.125 22.9375 C27.11597656 23.90751953 27.10695312 24.87753906 27.09765625 25.87695312 C27.07426107 28.25156407 27.04148176 30.62564776 27 33 C24.36 33 21.72 33 19 33 C18.9906543 32.38479492 18.98130859 31.76958984 18.97167969 31.13574219 C18.91788915 28.33968914 18.83426181 25.5452938 18.75 22.75 C18.73582031 21.78191406 18.72164062 20.81382813 18.70703125 19.81640625 C18.60684264 14.15950014 18.60684264 14.15950014 15.953125 9.328125 C15.30859375 8.88984375 14.6640625 8.4515625 14 8 C10.75016865 9.08784968 10.75016865 9.08784968 8 11 C7.84285346 12.63256758 7.74914586 14.27135338 7.68359375 15.91015625 C7.64169922 16.89951172 7.59980469 17.88886719 7.55664062 18.90820312 C7.51732422 19.94912109 7.47800781 20.99003906 7.4375 22.0625 C7.39431641 23.10728516 7.35113281 24.15207031 7.30664062 25.22851562 C7.20018775 27.81886884 7.0981724 30.40932186 7 33 C4.36 33 1.72 33 -1 33 C-1.01458252 32.34926514 -1.02916504 31.69853027 -1.04418945 31.02807617 C-1.11864549 28.08061694 -1.21531266 25.13429358 -1.3125 22.1875 C-1.33505859 21.16333984 -1.35761719 20.13917969 -1.38085938 19.08398438 C-1.4340332 17.60961914 -1.4340332 17.60961914 -1.48828125 16.10546875 C-1.51446533 15.19949951 -1.54064941 14.29353027 -1.56762695 13.36010742 C-2.0753076 10.58893359 -2.73418397 9.63795158 -5 8 C-7.59889783 7.91975342 -7.59889783 7.91975342 -10 9 C-11.86750129 11.91903323 -12.28226349 14.3388508 -12.4140625 17.765625 C-12.47207031 19.09980469 -12.47207031 19.09980469 -12.53125 20.4609375 C-12.57765625 21.84152344 -12.57765625 21.84152344 -12.625 23.25 C-12.68300781 24.65378906 -12.68300781 24.65378906 -12.7421875 26.0859375 C-12.83624844 28.39043054 -12.92189399 30.69492013 -13 33 C-15.64 33 -18.28 33 -21 33 C-21 22.44 -21 11.88 -21 1 C-17.66666667 1 -14.33333333 1 -11 1 C-7.56143022 -0.71928489 -3.76751104 -0.38974252 0 0 Z " fill="#004D7E" transform="translate(168,75)"/>
<path d="M0 0 C0.845625 0.495 1.69125 0.99 2.5625 1.5 C2.8925 0.84 3.2225 0.18 3.5625 -0.5 C6.2025 -0.5 8.8425 -0.5 11.5625 -0.5 C11.66204745 4.19557647 11.73428467 8.89052663 11.78222656 13.58691406 C11.80223053 15.18142408 11.82944301 16.77586178 11.86425781 18.37011719 C12.21819619 35.00522097 12.21819619 35.00522097 7.5625 41.5 C4.33013325 44.22573548 1.3924672 45.43963875 -2.875 45.75 C-3.720625 45.6675 -4.56625 45.585 -5.4375 45.5 C-5.4375 43.19 -5.4375 40.88 -5.4375 38.5 C-4.303125 38.12875 -3.16875 37.7575 -2 37.375 C-0.0560869 36.63362127 -0.0560869 36.63362127 1.5625 35.5 C2.61999557 32.41630113 2.61999557 32.41630113 2.5625 29.5 C1.923125 29.995 1.28375 30.49 0.625 31 C-3.52235434 33.03135723 -6.89734449 33.19309407 -11.4375 32.5 C-16.75785674 30.65713671 -19.740785 27.37483095 -22.4375 22.5 C-24.0645583 17.6188251 -23.84893185 13.75594987 -22.25 8.875 C-19.90152789 4.50198297 -17.42817828 1.60011168 -13.0625 -0.8125 C-8.20078374 -2.08580664 -4.62425009 -2.01785459 0 0 Z M-14.4375 10.5 C-15.88897903 13.40295805 -15.80989025 15.27261779 -15.4375 18.5 C-13.23933796 21.82864537 -11.68364609 24.00154156 -7.9375 25.5 C-3.55267925 25.5 -1.25375092 24.29419008 1.875 21.25 C3.91387165 17.92739435 4.20144172 16.3336503 3.5625 12.5 C1.76256226 9.80009338 0.478727 7.9581135 -2.4375 6.5 C-7.93773842 5.98110958 -10.50554501 6.56804501 -14.4375 10.5 Z " fill="#004D7E" transform="translate(486.4375,20.5)"/>
<path d="M0 0 C0.639375 0.495 1.27875 0.99 1.9375 1.5 C2.2675 0.84 2.5975 0.18 2.9375 -0.5 C5.5775 -0.5 8.2175 -0.5 10.9375 -0.5 C11.01207894 4.07149757 11.06630276 8.64263509 11.10229492 13.21459961 C11.11731105 14.7673968 11.13773028 16.32015209 11.16381836 17.87280273 C11.20052073 20.11452624 11.21729787 22.35568539 11.23046875 24.59765625 C11.24595261 25.28336197 11.26143646 25.96906769 11.27738953 26.67555237 C11.27946013 32.70805103 9.86537964 37.28001738 5.875 41.875 C2.87218524 44.3934898 1.15477691 44.61738967 -2.6875 44.5625 C-3.91339844 44.54896484 -3.91339844 44.54896484 -5.1640625 44.53515625 C-5.79054688 44.52355469 -6.41703125 44.51195312 -7.0625 44.5 C-7.0625 42.52 -7.0625 40.54 -7.0625 38.5 C-5.94875 38.066875 -4.835 37.63375 -3.6875 37.1875 C0.11262334 35.80088881 0.11262334 35.80088881 1.9375 32.5 C1.9375 31.51 1.9375 30.52 1.9375 29.5 C0.968125 30.015625 -0.00125 30.53125 -1 31.0625 C-5.51815779 32.98317437 -9.36567064 32.73420334 -14.0625 31.5 C-18.92002121 29.20871641 -21.250029 26.44426194 -23.3671875 21.640625 C-25.06237536 16.42173203 -24.63125189 12.22296335 -22.375 7.25 C-17.74907678 -1.09962737 -8.64049415 -4.23207877 0 0 Z M-14.0625 8.5 C-16.44949285 11.64649057 -16.53501366 14.64113846 -16.0625 18.5 C-14.26256226 21.19990662 -12.978727 23.0418865 -10.0625 24.5 C-6.11453426 24.8724496 -3.73209967 24.84935635 -0.1875 23 C2.27037931 20.10837728 2.9545736 18.27473212 3.19921875 14.53515625 C2.69580946 10.62058547 0.88788653 9.07374144 -2.0625 6.5 C-6.94081221 4.7355041 -9.79738786 5.68890336 -14.0625 8.5 Z " fill="#004D7E" transform="translate(345.0625,76.5)"/>
<path d="M0 0 C4.7183642 2.74948796 7.341449 5.77633939 9 11 C9.6514203 16.13561584 9.80263851 21.2541807 7.375 25.9375 C3.93210022 30.37702866 0.61257635 32.91766005 -4.9375 33.9375 C-9.29731459 34.32391902 -12.16813202 32.99576457 -16 31 C-16.33 35.62 -16.66 40.24 -17 45 C-19.64 45 -22.28 45 -25 45 C-25 30.15 -25 15.3 -25 0 C-22.36 0 -19.72 0 -17 0 C-17 0.66 -17 1.32 -17 2 C-15.576875 1.2265625 -15.576875 1.2265625 -14.125 0.4375 C-9.3384069 -1.57790762 -4.95586064 -1.43751727 0 0 Z M-17 12 C-17.75166097 14.82442304 -17.68698279 17.16619599 -17 20 C-15.20636089 22.8100346 -13.98119065 24.50940468 -11 26 C-7.12785818 26.43023798 -5.47503629 26.31669086 -2.1875 24.125 C0.78550291 21.23694003 0.95274542 20.41178991 1.4375 16.1875 C1.38977417 12.4444314 1.04281326 12.04892944 -1.625 9 C-8.09899233 5.1635601 -12.06766324 6.36304371 -17 12 Z " fill="#004D7E" transform="translate(276,20)"/>
<path d="M0 0 C9.24 0 18.48 0 28 0 C28 2.64 28 5.28 28 8 C21.73 8 15.46 8 9 8 C9 11.63 9 15.26 9 19 C14.61 19 20.22 19 26 19 C26 21.64 26 24.28 26 27 C20.39 27 14.78 27 9 27 C9 30.63 9 34.26 9 38 C15.27 38 21.54 38 28 38 C28 40.64 28 43.28 28 46 C18.76 46 9.52 46 0 46 C0 30.82 0 15.64 0 0 Z " fill="#004D7E" transform="translate(147,7)"/>
<path d="M0 0 C2.31 0 4.62 0 7 0 C7 14.85 7 29.7 7 45 C4.69 45 2.38 45 0 45 C-0.33 44.34 -0.66 43.68 -1 43 C-1.82371094 43.72896484 -1.82371094 43.72896484 -2.6640625 44.47265625 C-6.77574742 47.16106562 -11.26183186 46.61891891 -16 46 C-20.45146251 43.81473658 -23.18885145 41.0605479 -26 37 C-27.79973286 31.60080143 -27.70112627 26.06442735 -25.875 20.6875 C-23.23986769 16.91047703 -20.1675053 14.08375265 -16 12 C-13.79296875 11.796875 -13.79296875 11.796875 -11.1875 11.75 C-10.33542969 11.72421875 -9.48335938 11.6984375 -8.60546875 11.671875 C-6 12 -6 12 -1 15 C-0.67 10.05 -0.34 5.1 0 0 Z M-17 22 C-19.0249888 24.46520376 -19.03001022 26.23579458 -19.4375 29.4375 C-19.28294235 33.11033826 -19.28294235 33.11033826 -16.875 35.875 C-13.67084273 38.24329016 -11.97209416 39 -8 39 C-4.55126614 37.63654708 -3.20066377 36.2848131 -1.0625 33.25 C0.311729 29.046476 -0.25578363 27.0192812 -2 23 C-7.0655347 17.9344653 -10.91344438 18.7312942 -17 22 Z " fill="#004D7E" transform="translate(294,63)"/>
<path d="M0 0 C3.68262858 3.24422042 7.04731266 6.25773579 7.625 11.3125 C7.625 13.9525 7.625 16.5925 7.625 19.3125 C-0.295 19.6425 -8.215 19.9725 -16.375 20.3125 C-16.045 21.3025 -15.715 22.2925 -15.375 23.3125 C-9.20879753 24.30627632 -5.74067184 24.83851292 -0.375 21.3125 C2.375 21.875 2.375 21.875 4.625 23.3125 C5.4375 25.4375 5.4375 25.4375 5.625 27.3125 C-0.08749953 32.09864825 -4.04061378 32.67432834 -11.359375 32.5859375 C-15.86791753 32.17713183 -17.84702857 31.17897679 -21.375 28.3125 C-25.55464896 23.16831666 -26.01256208 18.75155188 -25.75 12.1875 C-25.10861385 7.27020619 -23.7485668 4.14463105 -19.6796875 1.00390625 C-13.39208576 -2.67446805 -6.5361256 -3.2680628 0 0 Z M-17.375 10.3125 C-17.375 10.9725 -17.375 11.6325 -17.375 12.3125 C-11.765 12.3125 -6.155 12.3125 -0.375 12.3125 C-2.87556593 7.33628257 -2.87556593 7.33628257 -6.375 5.3125 C-11.56682674 4.33026251 -13.84201488 6.86167732 -17.375 10.3125 Z " fill="#004D7E" transform="translate(480.375,76.6875)"/>
<path d="M0 0 C3.68262858 3.24422042 7.04731266 6.25773579 7.625 11.3125 C7.625 13.9525 7.625 16.5925 7.625 19.3125 C-0.295 19.6425 -8.215 19.9725 -16.375 20.3125 C-16.045 21.3025 -15.715 22.2925 -15.375 23.3125 C-9.20879753 24.30627632 -5.74067184 24.83851292 -0.375 21.3125 C2.375 21.875 2.375 21.875 4.625 23.3125 C5.4375 25.4375 5.4375 25.4375 5.625 27.3125 C-0.08749953 32.09864825 -4.04061378 32.67432834 -11.359375 32.5859375 C-15.86791753 32.17713183 -17.84702857 31.17897679 -21.375 28.3125 C-25.55464896 23.16831666 -26.01256208 18.75155188 -25.75 12.1875 C-25.10861385 7.27020619 -23.7485668 4.14463105 -19.6796875 1.00390625 C-13.39208576 -2.67446805 -6.5361256 -3.2680628 0 0 Z M-17.375 10.3125 C-17.375 10.9725 -17.375 11.6325 -17.375 12.3125 C-11.765 12.3125 -6.155 12.3125 -0.375 12.3125 C-2.87556593 7.33628257 -2.87556593 7.33628257 -6.375 5.3125 C-11.56682674 4.33026251 -13.84201488 6.86167732 -17.375 10.3125 Z " fill="#004D7E" transform="translate(422.375,76.6875)"/>
<path d="M0 0 C2.64 0 5.28 0 8 0 C8.33 4.62 8.66 9.24 9 14 C10.32 13.34 11.64 12.68 13 12 C17.71027588 11.26348414 21.17015542 11.57753367 25.4375 13.75 C28.68019212 16.59724186 29.86981134 18.42373733 30.22705078 22.74902344 C30.21657715 23.77543945 30.20610352 24.80185547 30.1953125 25.859375 C30.18886719 26.97441406 30.18242187 28.08945313 30.17578125 29.23828125 C30.15902344 30.39714844 30.14226562 31.55601563 30.125 32.75 C30.11597656 33.92433594 30.10695313 35.09867188 30.09765625 36.30859375 C30.07410063 39.20593536 30.04120652 42.10286441 30 45 C27.36 45 24.72 45 22 45 C21.97494385 44.34402832 21.9498877 43.68805664 21.92407227 43.01220703 C21.8082674 40.04959817 21.68547114 37.08731969 21.5625 34.125 C21.52318359 33.09246094 21.48386719 32.05992188 21.44335938 30.99609375 C21.40146484 30.00996094 21.35957031 29.02382812 21.31640625 28.0078125 C21.27974854 27.09660645 21.24309082 26.18540039 21.20532227 25.24658203 C21.13422935 22.96516519 21.13422935 22.96516519 20 21 C16.62989665 20.02641459 14.83181266 19.55037154 11.6875 21.25 C9.01193604 24.02465892 8.85670321 26.76446027 8.68359375 30.44921875 C8.64169922 31.29677734 8.59980469 32.14433594 8.55664062 33.01757812 C8.51732422 33.89865234 8.47800781 34.77972656 8.4375 35.6875 C8.39431641 36.58017578 8.35113281 37.47285156 8.30664062 38.39257812 C8.20064647 40.59490108 8.09857949 42.79733473 8 45 C5.36 45 2.72 45 0 45 C0 30.15 0 15.3 0 0 Z " fill="#004D7E" transform="translate(362,63)"/>
<path d="M0 0 C2.64 0 5.28 0 8 0 C8.33 7.92 8.66 15.84 9 24 C10.44375 22.185 11.8875 20.37 13.375 18.5 C15.90690331 15.52395512 17.97765676 13.2583489 21.890625 12.26953125 C24.34742318 12.30813808 26.59787131 12.4940197 29 13 C25.59008792 18.54110713 21.38579957 23.20968493 17 28 C18.44520601 32.55987413 20.84077937 35.25824968 24.125 38.6875 C29 43.79036827 29 43.79036827 29 46 C25.29388982 46.72907085 23.56083276 47.0377284 20 46 C15.72305899 42.65499944 12.36357729 38.22490456 9 34 C8.67 37.96 8.34 41.92 8 46 C5.36 46 2.72 46 0 46 C0 30.82 0 15.64 0 0 Z " fill="#004D7E" transform="translate(218,7)"/>
<path d="M0 0 C4.48554175 2.52821444 8.46854559 5.90144284 10.08203125 10.95703125 C11.28034101 17.63332851 10.14606326 22.39277513 6.4375 27.9375 C2.64179268 31.73320732 -1.27754575 33.88432628 -6.734375 33.97265625 C-11.9859487 33.61139027 -15.52377965 32.5066017 -19.5625 28.9375 C-23.69487225 23.71766137 -24.19272418 19.35198551 -23.9453125 12.74609375 C-23.41632255 8.86503484 -22.2533031 6.76992431 -19.5625 3.9375 C-13.1121044 -0.93320688 -7.89562734 -2.35483622 0 0 Z M-13.5625 8.9375 C-15.65348402 12.11002748 -16.54721397 14.18848463 -16.625 18 C-15.13429226 22.12136846 -13.27880819 23.66642277 -9.5625 25.9375 C-5.59389336 26.00592425 -3.46084212 25.55215514 -0.1875 23.3125 C2.00326361 20.11061472 2.36970153 17.8020127 2.4375 13.9375 C0.84911066 10.36362398 -0.27884358 9.12660428 -3.5625 6.9375 C-7.42474368 6.60879841 -10.413517 6.54861635 -13.5625 8.9375 Z " fill="#004D7E" transform="translate(331.5625,20.0625)"/>
<path d="M0 0 C2.64 0 5.28 0 8 0 C8.39832031 0.86882812 8.79664063 1.73765625 9.20703125 2.6328125 C9.73683594 3.78523438 10.26664063 4.93765625 10.8125 6.125 C11.33457031 7.26195313 11.85664063 8.39890625 12.39453125 9.5703125 C13.87757249 12.73846385 15.43560911 15.87121822 17 19 C19.31 12.73 21.62 6.46 24 0 C26.97 0 29.94 0 33 0 C25.43338146 22.17672424 25.43338146 22.17672424 21.8125 31.625 C21.38582031 32.75164062 20.95914063 33.87828125 20.51953125 35.0390625 C18.2197721 39.52034126 15.15230393 42.23179738 11 45 C8.66800612 45.07905064 6.33167378 45.08798769 4 45 C4 42.69 4 40.38 4 38 C5.423125 37.38125 5.423125 37.38125 6.875 36.75 C10.57183613 34.70765912 10.57183613 34.70765912 12 31 C11.16178325 27.8915044 11.16178325 27.8915044 9.5703125 24.58984375 C9.30113007 23.9811293 9.03194763 23.37241486 8.75460815 22.74525452 C7.89268146 20.80240739 7.01007197 18.86989912 6.125 16.9375 C5.25066375 15.00016506 4.38085538 13.06098262 3.51681519 11.11903381 C2.73121336 9.35782828 1.93256094 7.60246149 1.13330078 5.84741211 C0 3 0 3 0 0 Z " fill="#004D7E" transform="translate(197,76)"/>
<path d="M0 0 C3.97213799 3.52075867 5.53366884 6.94879958 5.98681641 12.16186523 C6.04458512 15.23842626 6.01196889 18.29886219 5.9375 21.375 C5.91719727 22.97311523 5.91719727 22.97311523 5.89648438 24.60351562 C5.86134724 27.21537588 5.81215184 29.82616634 5.75 32.4375 C3.11 32.4375 0.47 32.4375 -2.25 32.4375 C-2.26981934 31.78676514 -2.28963867 31.13603027 -2.31005859 30.46557617 C-2.40529299 27.51830849 -2.51497818 24.57175115 -2.625 21.625 C-2.6559375 20.60083984 -2.686875 19.57667969 -2.71875 18.52148438 C-2.75742187 17.53857422 -2.79609375 16.55566406 -2.8359375 15.54296875 C-2.88306885 14.18401489 -2.88306885 14.18401489 -2.93115234 12.79760742 C-3.11027919 10.17224608 -3.11027919 10.17224608 -5.25 7.4375 C-7.45725073 7.07387182 -7.45725073 7.07387182 -9.875 7.25 C-10.69226563 7.27707031 -11.50953125 7.30414063 -12.3515625 7.33203125 C-12.97804688 7.36683594 -13.60453125 7.40164062 -14.25 7.4375 C-15.11111516 10.46519315 -15.43230893 13.28016637 -15.56640625 16.421875 C-15.60830078 17.35644531 -15.65019531 18.29101562 -15.69335938 19.25390625 C-15.75233398 20.70603516 -15.75233398 20.70603516 -15.8125 22.1875 C-15.85568359 23.17105469 -15.89886719 24.15460937 -15.94335938 25.16796875 C-16.04922052 27.59101275 -16.15130171 30.0141554 -16.25 32.4375 C-18.89 32.4375 -21.53 32.4375 -24.25 32.4375 C-24.25 21.5475 -24.25 10.6575 -24.25 -0.5625 C-20.58333333 -0.5625 -16.91666667 -0.5625 -13.25 -0.5625 C-8.35000043 -2.19583319 -4.69532932 -2.25736987 0 0 Z " fill="#004D7E" transform="translate(453.25,20.5625)"/>
<path d="M0 0 C4.7839504 1.74798188 6.79092818 3.45087422 9 8 C9.34057617 10.9543457 9.34057617 10.9543457 9.29296875 14.17578125 C9.28330078 15.33271484 9.27363281 16.48964844 9.26367188 17.68164062 C9.23853516 18.87982422 9.21339844 20.07800781 9.1875 21.3125 C9.16719727 23.1387793 9.16719727 23.1387793 9.14648438 25.00195312 C9.11119261 28.00175345 9.06188481 31.00064975 9 34 C6.36 34 3.72 34 1 34 C0.505 21.625 0.505 21.625 0 9 C-2.97 9 -5.94 9 -9 9 C-12.09762996 12.09762996 -12.11565718 15.30246601 -12.31640625 19.546875 C-12.35830078 20.39121094 -12.40019531 21.23554687 -12.44335938 22.10546875 C-12.48267578 22.97816406 -12.52199219 23.85085937 -12.5625 24.75 C-12.62727539 26.08224609 -12.62727539 26.08224609 -12.69335938 27.44140625 C-12.79913615 29.62745963 -12.90122546 31.81362089 -13 34 C-15.31 34 -17.62 34 -20 34 C-20 23.11 -20 12.22 -20 1 C-17.69 1 -15.38 1 -13 1 C-12.67 1.66 -12.34 2.32 -12 3 C-11.319375 2.505 -10.63875 2.01 -9.9375 1.5 C-6.28168831 -0.36679746 -4.06691572 -0.42809639 0 0 Z " fill="#004D7E" transform="translate(399,19)"/>
<path d="M0 0 C3.75570566 1.63291551 5.87761405 3.52190496 8 7 C8.34057617 9.84082031 8.34057617 9.84082031 8.29296875 13.078125 C8.28330078 14.23828125 8.27363281 15.3984375 8.26367188 16.59375 C8.23853516 17.8003125 8.21339844 19.006875 8.1875 20.25 C8.16719727 22.08304688 8.16719727 22.08304688 8.14648438 23.953125 C8.1111398 26.96919498 8.0617956 29.98437487 8 33 C5.69 33 3.38 33 1 33 C0.98018066 32.41508789 0.96036133 31.83017578 0.93994141 31.22753906 C0.84446519 28.56791975 0.73487858 25.90906162 0.625 23.25 C0.5940625 22.32960938 0.563125 21.40921875 0.53125 20.4609375 C0.49257813 19.57148437 0.45390625 18.68203125 0.4140625 17.765625 C0.36693115 16.54020996 0.36693115 16.54020996 0.31884766 15.29003906 C-0.02983868 12.78569158 -0.64070245 11.12733909 -2 9 C-4.868554 7.94316431 -6.36314145 7.7700233 -9.25 8.8125 C-11.15074924 9.89399368 -11.15074924 9.89399368 -12 12 C-12.15175549 13.59262066 -12.24900325 15.19064856 -12.31640625 16.7890625 C-12.37924805 18.20058594 -12.37924805 18.20058594 -12.44335938 19.640625 C-12.50233398 21.11789063 -12.50233398 21.11789063 -12.5625 22.625 C-12.60568359 23.61757812 -12.64886719 24.61015625 -12.69335938 25.6328125 C-12.79961069 28.08839838 -12.90164964 30.54408703 -13 33 C-15.64 33 -18.28 33 -21 33 C-21 22.44 -21 11.88 -21 1 C-17.66666667 1 -14.33333333 1 -11 1 C-7.55105608 -0.72447196 -3.77843255 -0.36671096 0 0 Z " fill="#004D7E" transform="translate(514,75)"/>
<path d="M0 0 C3.75570566 1.63291551 5.87761405 3.52190496 8 7 C8.34057617 9.84082031 8.34057617 9.84082031 8.29296875 13.078125 C8.28330078 14.23828125 8.27363281 15.3984375 8.26367188 16.59375 C8.23853516 17.8003125 8.21339844 19.006875 8.1875 20.25 C8.16719727 22.08304688 8.16719727 22.08304688 8.14648438 23.953125 C8.1111398 26.96919498 8.0617956 29.98437487 8 33 C5.69 33 3.38 33 1 33 C0.98018066 32.41508789 0.96036133 31.83017578 0.93994141 31.22753906 C0.84446519 28.56791975 0.73487858 25.90906162 0.625 23.25 C0.5940625 22.32960938 0.563125 21.40921875 0.53125 20.4609375 C0.49257812 19.57148437 0.45390625 18.68203125 0.4140625 17.765625 C0.36693115 16.54020996 0.36693115 16.54020996 0.31884766 15.29003906 C-0.02983868 12.78569158 -0.64070245 11.12733909 -2 9 C-4.868554 7.94316431 -6.36314145 7.7700233 -9.25 8.8125 C-11.15074924 9.89399368 -11.15074924 9.89399368 -12 12 C-12.15175549 13.59262066 -12.24900325 15.19064856 -12.31640625 16.7890625 C-12.37924805 18.20058594 -12.37924805 18.20058594 -12.44335938 19.640625 C-12.50233398 21.11789063 -12.50233398 21.11789063 -12.5625 22.625 C-12.60568359 23.61757812 -12.64886719 24.61015625 -12.69335938 25.6328125 C-12.79961069 28.08839838 -12.90164964 30.54408703 -13 33 C-15.64 33 -18.28 33 -21 33 C-21 22.44 -21 11.88 -21 1 C-17.66666667 1 -14.33333333 1 -11 1 C-7.55105608 -0.72447196 -3.77843255 -0.36671096 0 0 Z " fill="#004D7E" transform="translate(254,75)"/>
<path d="M0 0 C2.99075314 1.9711782 4.19795705 3.62218949 5.75 6.8125 C3.5 8.4375 3.5 8.4375 0.75 9.8125 C-1.3125 9.0625 -1.3125 9.0625 -3.25 7.8125 C-6.3080351 6.74331808 -6.3080351 6.74331808 -9.25 7.8125 C-9.58 8.8025 -9.91 9.7925 -10.25 10.8125 C-9.58613281 10.99425781 -8.92226563 11.17601562 -8.23828125 11.36328125 C0.91889804 13.97006952 0.91889804 13.97006952 4.75 16.8125 C6.50391969 20.32033937 6.42273681 23.99372929 5.75 27.8125 C2.61322915 31.67314104 0.18755364 33.01112132 -4.6875 33.8125 C-9.18158657 34.07730308 -12.30561481 33.0553857 -16.25 30.8125 C-18.6875 28.625 -18.6875 28.625 -20.25 26.8125 C-19.755 25.3275 -19.755 25.3275 -19.25 23.8125 C-16.1875 22.625 -16.1875 22.625 -13.25 21.8125 C-12.899375 22.3075 -12.54875 22.8025 -12.1875 23.3125 C-9.30625711 25.54313966 -6.77990974 25.01230621 -3.25 24.8125 C-3.25 23.8225 -3.25 22.8325 -3.25 21.8125 C-4.08144531 21.48636719 -4.91289063 21.16023438 -5.76953125 20.82421875 C-6.85621094 20.38722656 -7.94289063 19.95023438 -9.0625 19.5 C-10.14144531 19.07074219 -11.22039062 18.64148438 -12.33203125 18.19921875 C-14.98889398 16.93658653 -16.55972974 16.18349343 -18.25 13.8125 C-18.93880655 10.74731083 -18.83893897 7.8922726 -18.25 4.8125 C-13.36731997 -1.52178761 -7.49216209 -2.73752076 0 0 Z " fill="#004D7E" transform="translate(522.25,20.1875)"/>
<path d="M0 0 C2.97 0 5.94 0 9 0 C9.49371094 1.34835938 9.98742187 2.69671875 10.49609375 4.0859375 C11.14316813 5.84898074 11.79030688 7.61200035 12.4375 9.375 C12.76298828 10.26445312 13.08847656 11.15390625 13.42382812 12.0703125 C13.89272461 13.34648438 13.89272461 13.34648438 14.37109375 14.6484375 C14.65911865 15.43395996 14.94714355 16.21948242 15.24389648 17.02880859 C15.97610705 19.03323485 15.97610705 19.03323485 17 21 C17.20681396 20.39937744 17.41362793 19.79875488 17.62670898 19.17993164 C18.56064116 16.47307571 19.49900895 13.76777852 20.4375 11.0625 C20.92573242 9.64420898 20.92573242 9.64420898 21.42382812 8.19726562 C21.73642578 7.29814453 22.04902344 6.39902344 22.37109375 5.47265625 C22.65911865 4.64000244 22.94714355 3.80734863 23.24389648 2.94946289 C24 1 24 1 25 0 C27.67058851 -0.14115161 30.32432238 -0.04247107 33 0 C32.40100964 4.35041165 31.33500629 8.14692106 29.75 12.23828125 C29.3065625 13.38748047 28.863125 14.53667969 28.40625 15.72070312 C27.9421875 16.90599609 27.478125 18.09128906 27 19.3125 C26.30390625 21.11944336 26.30390625 21.11944336 25.59375 22.96289062 C22.14210829 31.85789171 22.14210829 31.85789171 21 33 C19.48071962 33.07179964 17.95832518 33.08392007 16.4375 33.0625 C15.61121094 33.05347656 14.78492188 33.04445312 13.93359375 33.03515625 C13.29550781 33.02355469 12.65742188 33.01195312 12 33 C10.2867268 28.62340717 8.57784507 24.24513541 6.87304688 19.86523438 C6.2922269 18.37485291 5.71020032 16.88494109 5.12695312 15.39550781 C4.28980472 13.25707769 3.45698106 11.11700743 2.625 8.9765625 C2.23127197 7.97491562 2.23127197 7.97491562 1.82958984 6.95303345 C0 2.22774341 0 2.22774341 0 0 Z " fill="#004D7E" transform="translate(342,20)"/>
<path d="M0 0 C0 2.97 0 5.94 0 9 C2.64 9 5.28 9 8 9 C8 11.64 8 14.28 8 17 C5.36 17 2.72 17 0 17 C0.33 22.28 0.66 27.56 1 33 C3.31 33.66 5.62 34.32 8 35 C8 37.31 8 39.62 8 42 C6.41705218 42.05437607 4.83355744 42.09296271 3.25 42.125 C2.36828125 42.14820313 1.4865625 42.17140625 0.578125 42.1953125 C-2.20492278 41.98447555 -3.71009012 41.58302466 -6 40 C-7.80440456 37.05833202 -8.24161178 34.87927139 -8.1953125 31.453125 C-8.18886719 30.60878906 -8.18242187 29.76445313 -8.17578125 28.89453125 C-8.15902344 28.02183594 -8.14226562 27.14914063 -8.125 26.25 C-8.11597656 25.36183594 -8.10695312 24.47367188 -8.09765625 23.55859375 C-8.07414577 21.37211942 -8.04128499 19.18619906 -8 17 C-9.98 17 -11.96 17 -14 17 C-14 14.36 -14 11.72 -14 9 C-12.02 9 -10.04 9 -8 9 C-8 6.69 -8 4.38 -8 2 C-2.25 0 -2.25 0 0 0 Z " fill="#004D7E" transform="translate(191,11)"/>
<path d="M0 0 C0 2.97 0 5.94 0 9 C2.31 9 4.62 9 7 9 C7 11.31 7 13.62 7 16 C4.69 16 2.38 16 0 16 C0.33 21.61 0.66 27.22 1 33 C2.98 33.33 4.96 33.66 7 34 C7 36.64 7 39.28 7 42 C-1.66725664 42.44070796 -1.66725664 42.44070796 -6 39 C-8.13604308 35.79593538 -8.24208908 35.00399253 -8.1953125 31.33203125 C-8.18886719 30.43935547 -8.18242187 29.54667969 -8.17578125 28.62695312 C-8.15902344 27.69818359 -8.14226562 26.76941406 -8.125 25.8125 C-8.11597656 24.87212891 -8.10695313 23.93175781 -8.09765625 22.96289062 C-8.07409056 20.64167032 -8.04119116 18.32096356 -8 16 C-9.98 16 -11.96 16 -14 16 C-14 13.69 -14 11.38 -14 9 C-12.02 9 -10.04 9 -8 9 C-8 6.69 -8 4.38 -8 2 C-4.91190305 0.23537317 -3.76687864 0 0 0 Z " fill="#004D7E" transform="translate(445,67)"/>
<path d="M0 0 C0 2.97 0 5.94 0 9 C-1.11375 9.268125 -2.2275 9.53625 -3.375 9.8125 C-7.21840951 10.65809019 -7.21840951 10.65809019 -9 14 C-9.3650791 16.22131423 -9.3650791 16.22131423 -9.4140625 18.66796875 C-9.47207031 20.00698242 -9.47207031 20.00698242 -9.53125 21.37304688 C-9.57765625 22.76620117 -9.57765625 22.76620117 -9.625 24.1875 C-9.68300781 25.59805664 -9.68300781 25.59805664 -9.7421875 27.03710938 C-9.83643187 29.3578771 -9.92204025 31.67863748 -10 34 C-12.64 34 -15.28 34 -18 34 C-18 23.11 -18 12.22 -18 1 C-15.36 1 -12.72 1 -10 1 C-9.67 1.66 -9.34 2.32 -9 3 C-7.88625 2.505 -6.7725 2.01 -5.625 1.5 C-2 0 -2 0 0 0 Z " fill="#004D7E" transform="translate(307,19)"/>
<path d="M0 0 C2.64 0 5.28 0 8 0 C8 10.89 8 21.78 8 33 C5.36 33 2.72 33 0 33 C0 22.11 0 11.22 0 0 Z " fill="#004D7E" transform="translate(414,20)"/>
<path d="M0 0 C2.64 0 5.28 0 8 0 C8 10.89 8 21.78 8 33 C5.36 33 2.72 33 0 33 C0 22.11 0 11.22 0 0 Z " fill="#004D7E" transform="translate(204,20)"/>
<path d="M0 0 C2.64 0 5.28 0 8 0 C8 10.56 8 21.12 8 32 C5.36 32 2.72 32 0 32 C0 21.44 0 10.88 0 0 Z " fill="#004D7E" transform="translate(308,76)"/>
<path d="M0 0 C0.625 3.375 0.625 3.375 1 7 C0.34 7.66 -0.32 8.32 -1 9 C-4.625 8.625 -4.625 8.625 -8 8 C-9.32278481 2.58860759 -9.32278481 2.58860759 -7.9375 0.0625 C-5.08906752 -1.49954362 -3.06495097 -0.74921024 0 0 Z " fill="#004D7E" transform="translate(316,63)"/>
<path d="M0 0 C2.31 0 4.62 0 7 0 C8.125 2.25 8.125 2.25 9 5 C8.125 7.3125 8.125 7.3125 7 9 C4.125 9.125 4.125 9.125 1 9 C0.34 8.34 -0.32 7.68 -1 7 C-0.625 3.375 -0.625 3.375 0 0 Z " fill="#004D7E" transform="translate(204,7)"/>
<path d="M0 0 C1.134375 0.020625 2.26875 0.04125 3.4375 0.0625 C4.0625 3.4375 4.0625 3.4375 4.4375 7.0625 C2.4375 9.0625 2.4375 9.0625 -0.625 9.25 C-3.5625 9.0625 -3.5625 9.0625 -4.5625 8.0625 C-4.6875 4.5625 -4.6875 4.5625 -4.5625 1.0625 C-3.5625 0.0625 -3.5625 0.0625 0 0 Z " fill="#004D7E" transform="translate(418.5625,6.9375)"/>
<path d="M0 0 C2.625 0.375 2.625 0.375 5 1 C5.625 3.875 5.625 3.875 6 7 C4 9 4 9 1.5 9.3125 C0.2625 9.1578125 0.2625 9.1578125 -1 9 C-3 6 -3 6 -2.75 3.9375 C-2 2 -2 2 0 0 Z " fill="#004D7E" transform="translate(329,8)"/>
<path d="M0 0 C4.875 0.875 4.875 0.875 6 2 C6.1875 4.4375 6.1875 4.4375 6 7 C4 9 4 9 1.375 9.125 C0.59125 9.08375 -0.1925 9.0425 -1 9 C-2.1875 6.75 -2.1875 6.75 -3 4 C-1.625 1.6875 -1.625 1.6875 0 0 Z " fill="#004D7E" transform="translate(317,8)"/>
</svg>
